<svg id="Background_complete" data-name="Background complete" xmlns="http://www.w3.org/2000/svg" viewBox="0 0 500 500"><defs><style>.cls-1{fill:#e0e0e0;}.cls-2{fill:#f0f0f0;}.cls-10,.cls-3{fill:#fff;}.cls-4{fill:#e6e6e6;}.cls-5{fill:#263238;}.cls-6{fill:#e8505b;}.cls-7{fill:#455a64;}.cls-8{font-size:8.3px;fill:#e8e8e3;font-family:Montserrat-Regular, Montserrat;}.cls-9{opacity:0.1;}.cls-10,.cls-11,.cls-14{opacity:0.2;}.cls-12{fill:#ffbe9d;}.cls-13{fill:#eb996e;}</style></defs><title>registraionnew</title><path class="cls-1" d="M473.45,322.48H309.59V227.63H473.45Zm-162.86-1H472.45V228.63H310.59Z"/><rect class="cls-2" x="331.52" y="278.21" width="108.13" height="3.17"/><rect class="cls-2" x="331.52" y="290.03" width="115.58" height="3.46"/><rect class="cls-2" x="331.52" y="301.99" width="115.58" height="3.46"/><rect class="cls-2" x="331.52" y="261.04" width="37.79" height="8.23"/><rect class="cls-1" x="310.09" y="228.13" width="162.86" height="15.1"/><path class="cls-3" d="M460.42,241c-.21-.2,1.89-2.73,4.69-5.66s5.23-5.13,5.44-4.93-1.89,2.73-4.69,5.65S460.63,241.18,460.42,241Z"/><path class="cls-3" d="M470.55,241c-.21.2-2.65-2-5.44-4.94s-4.9-5.45-4.69-5.65,2.64,2,5.44,4.93S470.76,240.78,470.55,241Z"/><rect class="cls-4" x="108.93" y="40.33" width="162.86" height="93.85"/><rect class="cls-2" x="130.36" y="90.4" width="108.13" height="3.17"/><rect class="cls-2" x="130.36" y="102.22" width="115.58" height="3.46"/><rect class="cls-2" x="130.36" y="114.18" width="115.58" height="3.46"/><rect class="cls-2" x="130.36" y="73.23" width="37.79" height="8.23"/><rect class="cls-1" x="108.93" y="40.33" width="162.86" height="15.1"/><path class="cls-3" d="M258.7,53.1c-.21-.2,1.89-2.73,4.69-5.65s5.23-5.13,5.44-4.93-1.89,2.72-4.69,5.65S258.91,53.3,258.7,53.1Z"/><path class="cls-3" d="M268.83,53.1c-.21.2-2.65-2-5.44-4.93s-4.9-5.46-4.69-5.65,2.64,2,5.44,4.93S269,52.9,268.83,53.1Z"/><path class="cls-1" d="M210.11,214.67H46.24V119.82H210.11Zm-162.87-1H209.11V120.82H47.24Z"/><rect class="cls-2" x="68.17" y="170.39" width="108.13" height="3.17"/><rect class="cls-2" x="68.17" y="182.21" width="115.58" height="3.46"/><rect class="cls-2" x="68.17" y="194.17" width="115.58" height="3.46"/><rect class="cls-2" x="68.17" y="153.22" width="37.79" height="8.23"/><rect class="cls-1" x="46.74" y="120.32" width="162.86" height="15.1"/><rect class="cls-4" x="206.92" y="236.4" width="192.3" height="172.16"/><rect class="cls-2" x="65.95" y="182.17" width="150.64" height="156.51"/><rect class="cls-1" x="65.95" y="182.17" width="150.64" height="17.05"/><path class="cls-3" d="M78.38,190.52a3.16,3.16,0,1,1-3.16-3.31A3.23,3.23,0,0,1,78.38,190.52Z"/><path class="cls-3" d="M91.21,190.52a3.16,3.16,0,1,1-3.16-3.31A3.23,3.23,0,0,1,91.21,190.52Z"/><path class="cls-3" d="M104,190.52a3.16,3.16,0,1,1-3.16-3.31A3.23,3.23,0,0,1,104,190.52Z"/><rect class="cls-2" x="259.64" y="74.56" width="192.3" height="191.66"/><rect class="cls-1" x="259.64" y="74.56" width="192.3" height="22.45"/><path class="cls-3" d="M276,85.56a4.17,4.17,0,1,1-4.16-4.36A4.26,4.26,0,0,1,276,85.56Z"/><path class="cls-3" d="M291.69,82.61a4.17,4.17,0,1,1-6-.13A4.26,4.26,0,0,1,291.69,82.61Z"/><path class="cls-3" d="M309.8,85.56a4.17,4.17,0,1,1-4.16-4.36A4.26,4.26,0,0,1,309.8,85.56Z"/><path class="cls-5" d="M410.41,459.41c0,.14-69.44.26-155.08.26s-155.09-.12-155.09-.26,69.42-.26,155.09-.26S410.41,459.26,410.41,459.41Z"/><path class="cls-6" d="M342.74,337c-15.44-10.79-18.95-30.83-18.34-48.83.1-3-.23-6.18,1.2-8.82s4.77-4.44,7.46-3.17c2.23,1.05,3.21,3.65,4.45,5.79a17.65,17.65,0,0,0,7.05,6.74c1.92,1,4.29,1.6,6.18.56,2.59-1.43,2.89-5,2.88-8q-.06-8.36-.11-16.71a27.83,27.83,0,0,1,.9-8.88c.93-2.84,3-5.47,5.83-6.27s6.36.84,7,3.77a27.11,27.11,0,0,1,.09,3.72c.08,1.24.66,2.62,1.84,3s2.39-.5,3.28-1.37c3.09-3,5.18-6.91,7.14-10.78s3.86-7.82,6.66-11.11,6.67-5.91,11-6.15,8.84,2.4,9.93,6.61-1.38,8.49-4,11.9a66.61,66.61,0,0,1-13.9,13.24,5.49,5.49,0,0,0-2.32,2.5c-.65,2,1.24,4,3.2,4.63,2.23.74,4.65.51,7,.78s4.86,1.31,5.74,3.51c1.22,3.06-1.33,6.26-3.85,8.36A56.89,56.89,0,0,1,382,291.72c-2.19.81-4.51,1.51-6.28,3.06s-2.85,4.23-1.77,6.34,3.82,2.78,6.12,2.35,4.37-1.68,6.56-2.5c4.11-1.55,9.42-1.27,12,2.28a9.45,9.45,0,0,1,1,8.37,21.63,21.63,0,0,1-4.53,7.38,57.37,57.37,0,0,1-24.54,17.25c-9.53,3.31-18.36,4.2-27.84.74"/><path class="cls-5" d="M402.77,232.93a3.11,3.11,0,0,1-.29.29l-.89.79c-.79.69-1.94,1.71-3.39,3.07a111.35,111.35,0,0,0-11.42,12.32c-2.22,2.77-4.54,5.91-7,9.32s-5,7.09-7.51,11a135.69,135.69,0,0,0-7.38,12.78c-1.15,2.28-2.18,4.67-3.23,7.11l-3.17,7.42a273,273,0,0,0-10.65,28.77,133.11,133.11,0,0,0-5,24.53,98.44,98.44,0,0,0-.28,16.88c.16,2,.31,3.54.45,4.58.06.5.11.89.14,1.19a2.11,2.11,0,0,1,0,.41,2.39,2.39,0,0,1-.09-.4c0-.29-.11-.69-.19-1.18-.17-1-.36-2.59-.55-4.58a93.1,93.1,0,0,1,.11-16.94,130.91,130.91,0,0,1,4.88-24.64A265.68,265.68,0,0,1,358,296.86l3.17-7.42c1.05-2.43,2.09-4.84,3.25-7.14a136.07,136.07,0,0,1,7.43-12.81c2.57-4,5.14-7.63,7.57-11s4.78-6.54,7-9.31a105.13,105.13,0,0,1,11.58-12.23c1.47-1.33,2.65-2.33,3.46-3l.92-.75Z"/><path class="cls-5" d="M364.61,282.28a5.65,5.65,0,0,1-.29-1.28c-.16-.82-.35-2-.56-3.51-.42-3-.87-7.11-1.34-11.67s-1-8.67-1.44-11.63c-.23-1.48-.42-2.68-.57-3.5a7.12,7.12,0,0,1-.17-1.3,5.8,5.8,0,0,1,.38,1.25c.21.82.47,2,.75,3.48.56,3,1.13,7.08,1.6,11.64s.86,8.57,1.18,11.68c.15,1.4.28,2.58.38,3.53A6.43,6.43,0,0,1,364.61,282.28Z"/><path class="cls-5" d="M403.05,275.1a9.49,9.49,0,0,1-1.54.18c-1,.09-2.41.21-4.17.41-3.52.38-8.37,1.08-13.68,2.08s-10.08,2.13-13.5,3c-1.72.44-3.1.83-4.05,1.1a8.32,8.32,0,0,1-1.5.37,7.77,7.77,0,0,1,1.43-.57c.94-.34,2.31-.79,4-1.28,3.4-1,8.17-2.2,13.5-3.21a136.55,136.55,0,0,1,13.74-1.92c1.77-.15,3.21-.22,4.2-.24A8.28,8.28,0,0,1,403.05,275.1Z"/><path class="cls-5" d="M347.86,325a2.53,2.53,0,0,1-.26-.47l-.66-1.39c-.56-1.21-1.33-3-2.26-5.18-1.85-4.4-4.22-10.57-6.75-17.4s-4.83-13-6.59-17.45c-.87-2.16-1.58-3.93-2.1-5.25-.23-.57-.41-1.05-.57-1.43a1.93,1.93,0,0,1-.16-.52,2,2,0,0,1,.27.47c.17.38.39.84.65,1.39.57,1.21,1.34,3,2.27,5.19,1.85,4.4,4.22,10.56,6.75,17.4s4.83,13,6.59,17.45c.86,2.16,1.57,3.93,2.1,5.25l.56,1.43A1.61,1.61,0,0,1,347.86,325Z"/><path class="cls-5" d="M398.94,308.53a1.9,1.9,0,0,1-.51.21l-1.48.5L391.48,311c-4.62,1.5-11,3.64-18,6s-13.4,4.46-18.05,5.86c-2.33.7-4.21,1.25-5.52,1.6l-1.52.4a1.68,1.68,0,0,1-.54.1,2.12,2.12,0,0,1,.51-.21l1.48-.49,5.47-1.78c4.62-1.49,11-3.63,18-6s13.4-4.46,18.05-5.87c2.32-.7,4.21-1.25,5.52-1.6l1.51-.4A2.2,2.2,0,0,1,398.94,308.53Z"/><path class="cls-6" d="M378.1,66,373,67.8l-2.2-6.73c-4.07-12.41-17-19-28.9-14.81s-18.22,17.8-14.15,30.21l2.2,6.73-5.17,1.85a8.23,8.23,0,0,0-4.82,10.28l14.34,43.79a7.72,7.72,0,0,0,9.85,5.11l53.38-19.09a8.27,8.27,0,0,0,4.86-10.38L388,71A7.71,7.71,0,0,0,378.1,66Zm-40.68,7a13.21,13.21,0,0,1,7.76-16.56A12.37,12.37,0,0,1,361,64.55l2.21,6.73-23.59,8.44Zm30,38.85L371.09,123a.89.89,0,0,1-.57,1.12L365.4,126a.84.84,0,0,1-1-.54l-3.66-11.19a10,10,0,0,1-9-7,10.51,10.51,0,0,1,6.19-13.18,9.86,9.86,0,0,1,12.62,6.45A10.7,10.7,0,0,1,367.43,111.84Z"/><path class="cls-5" d="M372.73,67.68c0,.13-9.55,3.73-21.44,8s-21.57,7.68-21.62,7.54,9.55-3.73,21.44-8S372.68,67.54,372.73,67.68Z"/><path class="cls-5" d="M384.06,69.52a1.28,1.28,0,0,1,.12.26c.07.21.17.47.29.79.25.73.61,1.74,1.07,3,.91,2.67,2.22,6.48,3.83,11.18s3.51,10.36,5.63,16.6c1,3.13,2.19,6.38,3.28,9.82a14.59,14.59,0,0,1,.75,5.49,6.94,6.94,0,0,1-2.7,5,18.06,18.06,0,0,1-5.07,2.6l-5.16,1.85-9.75,3.49-16.51,5.88-11.15,3.92-3,1-.79.26a1.45,1.45,0,0,1-.28.07l.26-.12.78-.31,3-1.13,11.1-4.08,16.47-6,9.74-3.52,5.15-1.86a17.47,17.47,0,0,0,4.92-2.51,7,7,0,0,0,1.76-2.07,6.68,6.68,0,0,0,.75-2.57,14.15,14.15,0,0,0-.72-5.29c-1.08-3.41-2.22-6.69-3.25-9.82-2.07-6.26-3.94-11.89-5.52-16.64s-2.8-8.54-3.68-11.23c-.41-1.3-.74-2.32-1-3.06-.1-.33-.18-.59-.24-.8A.87.87,0,0,1,384.06,69.52Z"/><path class="cls-5" d="M355.91,55.73s-.53-.27-1.52-.66a13.19,13.19,0,0,0-4.36-.88,14.78,14.78,0,0,0-6.44,1.22,14.35,14.35,0,0,0-6.12,5.11,13.55,13.55,0,0,0-2.35,7.59,23.31,23.31,0,0,0,1,6.54c.53,1.83,1.07,3.28,1.42,4.28a10.5,10.5,0,0,1,.52,1.58,10,10,0,0,1-.71-1.5c-.41-1-1-2.42-1.58-4.25a22.74,22.74,0,0,1-1.15-6.65,13.89,13.89,0,0,1,2.4-7.89A14.58,14.58,0,0,1,343.4,55a14.74,14.74,0,0,1,6.65-1.15,12.55,12.55,0,0,1,4.42,1.06,9.35,9.35,0,0,1,1.09.59C355.8,55.63,355.92,55.71,355.91,55.73Z"/><path class="cls-5" d="M356.36,94.86a2.87,2.87,0,0,1,.51-.25,10.22,10.22,0,0,1,1.54-.56,11.14,11.14,0,0,1,2.6-.43,9,9,0,0,1,3.51.52c2.55.9,4.91,3.51,6.06,7a10,10,0,0,1,.05,5.74,13,13,0,0,1-3.27,5.4l.07-.26c1.32,3.64,2.77,7.61,4.28,11.74l.09.25-.26.08-2.28.77-5,1.66-.24.09-.09-.25c-1.37-4.15-2.87-8-4-11.79l.22.17a10,10,0,0,1-5.35-2.12,12,12,0,0,1-3.36-4,9.25,9.25,0,0,1-1.06-4.5,10.69,10.69,0,0,1,.84-3.87,10.42,10.42,0,0,1,3.35-4.39,6.36,6.36,0,0,1,1.73-1s-.63.3-1.64,1.09a10.65,10.65,0,0,0-3.17,4.38,9.51,9.51,0,0,0,.3,8.08,11.75,11.75,0,0,0,3.28,3.84,9.53,9.53,0,0,0,5.11,2h.16l.05.16c1.1,3.71,2.61,7.61,4,11.77l-.33-.17,5-1.67,2.29-.76-.16.33L367,112.17l0-.15.12-.12a12.52,12.52,0,0,0,3.16-5.17,9.67,9.67,0,0,0,0-5.49c-1.1-3.36-3.34-5.92-5.78-6.81a8.59,8.59,0,0,0-3.39-.57,10.92,10.92,0,0,0-2.57.35C357.08,94.56,356.38,94.9,356.36,94.86Z"/><path class="cls-7" d="M325.46,383.59l-99.89-.46a21.75,21.75,0,0,1-21.65-21.85L205,110.88a21.76,21.76,0,0,1,21.85-21.67l99.89.47a21.75,21.75,0,0,1,21.65,21.85l-1.06,250.4A21.75,21.75,0,0,1,325.46,383.59Z"/><path class="cls-3" d="M326.57,98.32l-19.36-.09a4.82,4.82,0,0,0-4.73,4.89v3.52a4.81,4.81,0,0,1-4.72,4.89L260,111.36a4.82,4.82,0,0,1-4.68-4.94v-3.51A4.81,4.81,0,0,0,250.65,98l-6.81,0-17-.08A15.24,15.24,0,0,0,211.58,113l-1,244.41a15.24,15.24,0,0,0,15.17,15.31l99.68.46A15.24,15.24,0,0,0,340.71,358l1-244.41A15.24,15.24,0,0,0,326.57,98.32Z"/><path class="cls-6" d="M313.16,340.6,239,340.26c-.76,0-1.38-.84-1.38-1.87l.08-19.39c0-1,.63-1.85,1.4-1.85l74.13.34c.76,0,1.38.84,1.38,1.87l-.09,19.39C314.55,339.78,313.93,340.61,313.16,340.6Z"/><text class="cls-8" transform="matrix(0.96, 0, 0, 1, 259.15, 331.22)">SING UP</text><rect class="cls-6" x="228.07" y="170.09" width="25.72" height="4.72" transform="translate(0.8 -1.11) rotate(0.26)"/><rect class="cls-9" x="228.07" y="170.09" width="25.72" height="4.72" transform="translate(0.8 -1.11) rotate(0.26)"/><path class="cls-1" d="M329.22,199.1a2.61,2.61,0,0,0,.59-.13,1.59,1.59,0,0,0,1-1.35c0-1.6,0-3.91,0-6.89v-6.38a2,2,0,0,0-.28-1.31,1.49,1.49,0,0,0-1.18-.61h-1.57l-14.44,0-83.64-.31a1.37,1.37,0,0,0-1.11.56,2,2,0,0,0-.26,1.31c0,1,0,2,0,3q0,3,0,6c0,1,0,2,0,3a9.1,9.1,0,0,0,0,1.41,1.38,1.38,0,0,0,.78.9,1.56,1.56,0,0,0,.62.11h5.09l22.21.12,37.6.23,25.35.2,6.9.08,1.79,0,.61,0-.61,0h-1.79l-6.9,0-25.35,0L257,199l-22.21-.09h-5.09a1.89,1.89,0,0,1-1.9-1.39,3.25,3.25,0,0,1-.06-.8V196c0-1,0-2,0-3q0-3,0-6c0-1,0-2,0-3a7.5,7.5,0,0,1,0-.8,1.85,1.85,0,0,1,.33-.82,1.92,1.92,0,0,1,1.53-.77l83.64.46,14.44.11h1.57a1.77,1.77,0,0,1,1.4.74,2.17,2.17,0,0,1,.32,1.46c0,.48,0,.94,0,1.4,0,1.82,0,3.48-.05,5,0,3-.06,5.3-.08,6.9a1.63,1.63,0,0,1-1.06,1.38A1.16,1.16,0,0,1,329.22,199.1Z"/><rect class="cls-6" x="234.97" y="188.29" width="47.04" height="4.41" transform="translate(0.88 -1.19) rotate(0.26)"/><rect class="cls-10" x="234.97" y="188.29" width="47.04" height="4.41" transform="translate(0.88 -1.19) rotate(0.26)"/><rect class="cls-6" x="227.89" y="213.15" width="25.72" height="4.72" transform="translate(1 -1.11) rotate(0.26)"/><rect class="cls-9" x="227.89" y="213.15" width="25.72" height="4.72" transform="translate(1 -1.11) rotate(0.26)"/><path class="cls-1" d="M328.56,242.16a2.38,2.38,0,0,0,.59-.11,2.1,2.1,0,0,0,1.27-1.13,2.67,2.67,0,0,0,.17-1.27v-1.59c0-1.15,0-2.47,0-4v-6.36a2.17,2.17,0,0,0-.3-1.32,2,2,0,0,0-1.08-.84,6.16,6.16,0,0,0-1.51-.08l-14.4,0-83.35-.31a1.83,1.83,0,0,0-1.82,1.61c0,.95,0,2,0,3q0,3,0,6c0,1,0,2,0,3a7,7,0,0,0,.06,1.4,1.89,1.89,0,0,0,.73,1,2,2,0,0,0,1.25.32h4.34l22.13.12,37.47.23,25.27.2,6.86.08,1.79,0,.61,0-.61,0-1.79,0H319.3l-25.27,0-37.47-.12L234.43,242h-4.35a2.6,2.6,0,0,1-1.53-.41,2.36,2.36,0,0,1-.93-1.32,6.78,6.78,0,0,1-.09-1.53c0-1,0-2,0-3q0-3,0-6c0-1,0-2,0-3a2.36,2.36,0,0,1,2.34-2.07l83.35.46,14.4.1a6.62,6.62,0,0,1,1.59.11,2.25,2.25,0,0,1,1.23,1,2.49,2.49,0,0,1,.33,1.46c0,.48,0,.94,0,1.4,0,1.81,0,3.47,0,5s0,2.81,0,4c0,.58,0,1.11,0,1.59a2.74,2.74,0,0,1-.21,1.31,2.07,2.07,0,0,1-1.34,1.14A1.58,1.58,0,0,1,328.56,242.16Z"/><rect class="cls-6" x="227.7" y="258.06" width="25.72" height="4.72" transform="translate(1.2 -1.1) rotate(0.26)"/><rect class="cls-9" x="227.7" y="258.06" width="25.72" height="4.72" transform="translate(1.2 -1.1) rotate(0.26)"/><path class="cls-1" d="M328.37,287.08A4.87,4.87,0,0,0,329,287a2.07,2.07,0,0,0,1.27-1.14,2.67,2.67,0,0,0,.17-1.27c0-.48,0-1,0-1.58V272.66a2.16,2.16,0,0,0-.3-1.32,2,2,0,0,0-1.08-.85,6.16,6.16,0,0,0-1.51-.08l-14.4,0-83.35-.31a1.84,1.84,0,0,0-1.82,1.61c0,.95,0,2,0,3q0,3,0,6c0,1,0,2,0,3a7,7,0,0,0,.06,1.4,1.89,1.89,0,0,0,.73,1,2,2,0,0,0,1.25.33h1.45l2.89,0,22.13.11,37.47.23,25.27.2L326,287l1.79,0,.61,0-.61,0-1.79,0-6.87,0-25.26,0L256.37,287l-22.13-.08-2.89,0h-1.46a2.46,2.46,0,0,1-1.53-.41,2.33,2.33,0,0,1-.93-1.31,6.87,6.87,0,0,1-.09-1.54c0-1,0-2,0-3q0-3,0-6c0-1,0-2,0-3.05a2.36,2.36,0,0,1,2.34-2.07l83.35.46,14.4.11a5.74,5.74,0,0,1,1.59.11,2.27,2.27,0,0,1,1.24,1,2.56,2.56,0,0,1,.32,1.46c0,.47,0,.93,0,1.39,0,1.81,0,3.47,0,5s0,2.82,0,4c0,.57,0,1.1,0,1.58a2.81,2.81,0,0,1-.21,1.32A2.13,2.13,0,0,1,329,287,1.88,1.88,0,0,1,328.37,287.08Z"/><rect class="cls-6" x="234.79" y="231.35" width="47.04" height="4.41" transform="translate(1.08 -1.19) rotate(0.26)"/><rect class="cls-10" x="234.79" y="231.35" width="47.04" height="4.41" transform="translate(1.08 -1.19) rotate(0.26)"/><path class="cls-6" d="M239.08,278.91a2.06,2.06,0,1,1-2.05-2.2A2.13,2.13,0,0,1,239.08,278.91Z"/><path class="cls-6" d="M245.45,278.94a2.06,2.06,0,1,1-2-2.2A2.14,2.14,0,0,1,245.45,278.94Z"/><path class="cls-6" d="M251.82,279a2.06,2.06,0,1,1-2-2.2A2.13,2.13,0,0,1,251.82,279Z"/><path class="cls-6" d="M258.19,279a2.06,2.06,0,1,1-2-2.2A2.13,2.13,0,0,1,258.19,279Z"/><path class="cls-6" d="M264.57,279a2.06,2.06,0,1,1-2.05-2.2A2.13,2.13,0,0,1,264.57,279Z"/><path class="cls-6" d="M270.94,279.06a2.06,2.06,0,1,1-2.05-2.2A2.13,2.13,0,0,1,270.94,279.06Z"/><path class="cls-6" d="M277.31,279.09a2.06,2.06,0,1,1-2.05-2.2A2.12,2.12,0,0,1,277.31,279.09Z"/><path class="cls-6" d="M283.68,279.12a2.06,2.06,0,1,1-2-2.2A2.11,2.11,0,0,1,283.68,279.12Z"/><path class="cls-6" d="M290.06,279.15A2.06,2.06,0,1,1,288,277,2.13,2.13,0,0,1,290.06,279.15Z"/><g class="cls-11"><path class="cls-3" d="M239.08,278.91a2.06,2.06,0,1,1-2.05-2.2A2.13,2.13,0,0,1,239.08,278.91Z"/><path class="cls-3" d="M245.45,278.94a2.06,2.06,0,1,1-2-2.2A2.14,2.14,0,0,1,245.45,278.94Z"/><path class="cls-3" d="M251.82,279a2.06,2.06,0,1,1-2-2.2A2.13,2.13,0,0,1,251.82,279Z"/><path class="cls-3" d="M258.19,279a2.06,2.06,0,1,1-2-2.2A2.13,2.13,0,0,1,258.19,279Z"/><path class="cls-3" d="M264.57,279a2.06,2.06,0,1,1-2.05-2.2A2.13,2.13,0,0,1,264.57,279Z"/><path class="cls-3" d="M270.94,279.06a2.06,2.06,0,1,1-2.05-2.2A2.13,2.13,0,0,1,270.94,279.06Z"/><path class="cls-3" d="M277.31,279.09a2.06,2.06,0,1,1-2.05-2.2A2.12,2.12,0,0,1,277.31,279.09Z"/><path class="cls-3" d="M283.68,279.12a2.06,2.06,0,1,1-2-2.2A2.11,2.11,0,0,1,283.68,279.12Z"/><path class="cls-3" d="M290.06,279.15A2.06,2.06,0,1,1,288,277,2.13,2.13,0,0,1,290.06,279.15Z"/></g><path class="cls-6" d="M281,134.78a3.88,3.88,0,0,0,2.31-3.58,3.65,3.65,0,1,0-7.28,0,3.88,3.88,0,0,0,2.32,3.62c-5.6.85-5.34,6.93-5.34,6.93l13.23.06S286.55,135.62,281,134.78Z"/><path class="cls-9" d="M281,134.78a3.88,3.88,0,0,0,2.31-3.58,3.65,3.65,0,1,0-7.28,0,3.88,3.88,0,0,0,2.32,3.62c-5.6.85-5.34,6.93-5.34,6.93l13.23.06S286.55,135.62,281,134.78Z"/><rect class="cls-6" x="255.31" y="145.64" width="47.19" height="5.64" transform="translate(0.69 -1.29) rotate(0.26)"/><rect class="cls-10" x="255.31" y="145.64" width="47.19" height="5.64" transform="translate(0.69 -1.29) rotate(0.26)"/><path class="cls-6" d="M129,175a2.9,2.9,0,0,1-.46.06l-1.37.1a15.43,15.43,0,0,0-2.19.29c-.43.09-.9.12-1.39.26l-1.55.43a25.77,25.77,0,0,0-7.37,3.66,26.19,26.19,0,0,0-7.26,8.08,27.5,27.5,0,0,0-2.54,5.8,28.1,28.1,0,0,0-1.11,6.78,29.48,29.48,0,0,0,.07,3.63c0,.61.16,1.22.24,1.84a13.1,13.1,0,0,0,.35,1.85,26.27,26.27,0,0,0,2.8,7.26,25.83,25.83,0,0,0,12.18,11.07A23.75,23.75,0,0,0,128,228a23.24,23.24,0,0,0,9-1.29l.87-.32.12,0,.11,0,12.61,6.41-.38.31L146.42,221l0-.15.11-.11a26.92,26.92,0,0,0,6.62-11,27.68,27.68,0,0,0,1-11.72,27,27,0,0,0-9-16.9,27.53,27.53,0,0,0-6.2-3.94,26.4,26.4,0,0,0-5.23-1.65l-2-.34-1.44-.1-.89-.07a1.4,1.4,0,0,1-.3,0h.3l.89,0,1.46.06,2,.3a26.43,26.43,0,0,1,5.3,1.59,27.37,27.37,0,0,1,6.3,3.92,27.09,27.09,0,0,1,5.82,7,27.58,27.58,0,0,1,3.42,10.07,28.14,28.14,0,0,1-.94,11.92,27.33,27.33,0,0,1-6.71,11.23l.06-.26c1.26,3.88,2.57,7.93,3.92,12.11l.2.61-.57-.29-12.62-6.39h.22l-.9.33a23.61,23.61,0,0,1-9.16,1.31,23.94,23.94,0,0,1-8.78-2A26.84,26.84,0,0,1,104,207.83a12.19,12.19,0,0,1-.35-1.88c-.08-.63-.21-1.25-.24-1.87a27.29,27.29,0,0,1,3.71-16.45,26.4,26.4,0,0,1,7.41-8.13,25.71,25.71,0,0,1,7.49-3.61l1.57-.41c.49-.13,1-.16,1.4-.24a13.62,13.62,0,0,1,2.22-.24l1.36-.05Z"/><path class="cls-6" d="M134.73,198.3h-1.85l-4-5.62V189s-2.86-.17-2.52,4.66,0,3.6,0,3.6-6.06,0-6.57.55c-.36.38-.53,6.41-.59,9.67a3.54,3.54,0,0,0,2.5,3.57,3,3,0,0,0,.66.09c1.51,0,9.24-1.23,9.24-1.23h3.19Z"/><polygon class="cls-6" points="140.02 197.29 138.89 209.93 135.72 209.93 135.72 197.54 140.02 197.29"/><path class="cls-6" d="M177.71,454.62v-8.56l-15.33-.1-.12,12.92,1,.08c4.23.27,21.52.67,24.35-.21C190.72,457.77,177.71,454.62,177.71,454.62Z"/><path class="cls-5" d="M187.92,458c0,.14-5.73.26-12.8.26s-12.81-.12-12.81-.26,5.73-.26,12.81-.26S187.92,457.8,187.92,458Z"/><path class="cls-5" d="M178,456.36c-.12-.06,0-.51.32-1s.72-.68.82-.58-.1.48-.41.89S178.11,456.43,178,456.36Z"/><path class="cls-5" d="M179,456.93c-.13-.05-.06-.56.24-1.09s.7-.86.81-.77-.08.53-.36,1S179.1,457,179,456.93Z"/><path class="cls-5" d="M166.93,457.91c-.06,0-.29-.18-.62-.56A10.68,10.68,0,0,0,165,456a3.56,3.56,0,0,0-1.66-.72c-.46-.06-.77,0-.79-.07s.25-.27.81-.3a3,3,0,0,1,2,.68,5.45,5.45,0,0,1,1.32,1.54C166.87,457.57,167,457.87,166.93,457.91Z"/><path class="cls-5" d="M178,454.76c.08.12-.19.41-.63.57s-.83.11-.85,0,.29-.31.67-.45S178,454.63,178,454.76Z"/><path class="cls-5" d="M177.79,453.93c0,.14-.39.27-.91.27s-.93-.1-.92-.25.42-.26.91-.27S177.78,453.79,177.79,453.93Z"/><path class="cls-6" d="M215.47,454.62v-8.56l-15.34-.1L200,458.75l1,.07c4.23.28,21.52.81,24.35-.07C228.47,457.77,215.47,454.62,215.47,454.62Z"/><path class="cls-5" d="M225.68,458c0,.14-5.74.26-12.81.26s-12.81-.12-12.81-.26,5.73-.26,12.81-.26S225.68,457.82,225.68,458Z"/><path class="cls-5" d="M215.74,456.36c-.13-.06,0-.51.31-1s.73-.68.83-.58-.11.48-.41.89S215.86,456.43,215.74,456.36Z"/><path class="cls-5" d="M216.71,456.93c-.13-.05-.06-.56.24-1.09s.7-.86.81-.77-.08.53-.36,1S216.85,457,216.71,456.93Z"/><path class="cls-5" d="M204.68,457.91c-.06,0-.29-.18-.62-.56a10,10,0,0,0-1.35-1.35,3.53,3.53,0,0,0-1.65-.72c-.47-.06-.78,0-.8-.07s.26-.27.81-.3a3,3,0,0,1,2,.68,5.68,5.68,0,0,1,1.33,1.54C204.62,457.57,204.74,457.87,204.68,457.91Z"/><path class="cls-5" d="M215.78,454.76c.08.12-.19.41-.62.57s-.83.11-.86,0,.29-.31.68-.45S215.71,454.63,215.78,454.76Z"/><path class="cls-5" d="M215.54,453.93c0,.14-.39.27-.91.27s-.93-.1-.92-.25.42-.26.91-.27S215.53,453.79,215.54,453.93Z"/><path class="cls-12" d="M271.94,200.72c-.4-.41-1.38-.22-1.38-.22a5.34,5.34,0,0,0,0-1.73c-.18-.57-1.44-.46-1.44-.46a5.79,5.79,0,0,1,0-1.42.49.49,0,0,0-.29-.5,4.68,4.68,0,0,0-1.89-.34c-.77-.56,2.35-4.92,3.51-6.32s.95-2.49-.08-2.49c-.7,0-4.35,4.2-5.46,5.61s-4.1,5.33-4.2,2.2-1.36-5.49-2.14-5.9-1.64.54-1.2,1.41a11.75,11.75,0,0,1,.7,3.08,7.41,7.41,0,0,1-.12,2.53,27.89,27.89,0,0,1-1.35,4.52l-.07-.05-23.4,22.43c-1.42,1.34-29.78-1.59-35.46-2.2a39.73,39.73,0,0,0-5.85-.39c-2.46.1-2.9.45-5.37.49a120.2,120.2,0,0,0-18.53,1.63,15.32,15.32,0,0,0-12.06,10.46c-5.74,17.89-18.71,60.27-21,84.07a100.26,100.26,0,0,0-4.69,9.67c-1.6,4.38-1.21,4.53-.67,4.63,1.45.27,3.12-7.59,3.74-5.7s-3.15,9.38-1.62,9.6c2,.28,3.58-8,3.77-8.66s1.19-.45,1,.16c-.29.89-3.11,10.22-1.15,10.51,1.09.17,1.2-1.81,1.2-1.81s2-8.92,2.91-8.75-.06,5.46-.52,7.21.19,2.66,1.12,2.22c.64-.29,2.18-5.64,2.59-7.39s1.47-6.56,2.88-3.76,3.55,4.41,4.43,4.44a1,1,0,0,0,.5-1.78,11.59,11.59,0,0,1-1.94-2.5,7.37,7.37,0,0,1-1-2.34,26.36,26.36,0,0,1-.7-5.06l-.16-1c2.24-11.09,8.69-43.64,18-64.43l3.81,7.86L170,266l-10.17,25.14,43.41-.57-6.47-24.94,7.86-26h0c8.51.19,30.37.5,34-1.14,4.58-2,28.28-31.92,28.28-31.92h0a56.77,56.77,0,0,0,4.43-3.84S272.81,201.61,271.94,200.72Z"/><path class="cls-6" d="M158,272.66c1.25-4.29,7.72-25.55,7.72-25.55s3.18,17.33,2.35,19.42a37.82,37.82,0,0,1-2.73,5.15c-7.34,11.18-6.38,16.77-6.38,16.77l44.34-1.35c.11-6.21-3.56-20.62-4.33-22.92s1.78-9.84,1.78-9.84,5-5.08,4.81-7.7a42.38,42.38,0,0,0-.87-7l27,1-.85-18.31L192,218.46c-1.34,3.82-13.55,1.95-13.55,1.95-13.19.43-14,2.86-19.49,7.11s-14.55,40.82-14.55,40.82Z"/><path class="cls-5" d="M184.18,268.34a9.38,9.38,0,0,1-2.34.12c-1.44,0-3.44-.1-5.63-.32s-4.16-.53-5.58-.81a9.62,9.62,0,0,1-2.27-.58,11.46,11.46,0,0,1,2.33.22c1.43.18,3.39.43,5.57.65s4.16.37,5.6.47A10.8,10.8,0,0,1,184.18,268.34Z"/><path class="cls-5" d="M187.21,264.57a10.34,10.34,0,0,1-2.42.82,42.9,42.9,0,0,1-6.06,1.16,44.84,44.84,0,0,1-6.16.3,10.31,10.31,0,0,1-2.55-.24,15.75,15.75,0,0,1,2.55-.13c1.56-.05,3.73-.17,6.1-.45s4.5-.68,6-1A15,15,0,0,1,187.21,264.57Z"/><path class="cls-5" d="M202.13,247.75a10,10,0,0,1-.3,2.26c-.26,1.38-.67,3.28-1.18,5.37s-1,3.95-1.44,5.3a9.6,9.6,0,0,1-.78,2.15,10.21,10.21,0,0,1,.42-2.25c.38-1.56.82-3.35,1.3-5.33s.93-3.76,1.32-5.32A10.36,10.36,0,0,1,202.13,247.75Z"/><path class="cls-5" d="M158.42,270.12a47.38,47.38,0,0,1-6.83-1.6,47.85,47.85,0,0,1-6.69-2.09,46.79,46.79,0,0,1,6.83,1.59A47,47,0,0,1,158.42,270.12Z"/><path class="cls-5" d="M205.14,239.42a3.41,3.41,0,0,1-1.15,0,11.94,11.94,0,0,1-3.05-.73,13,13,0,0,1-4-2.42,12.5,12.5,0,0,1-3.25-4.69,12.83,12.83,0,0,1-.9-5.64,8.88,8.88,0,0,1,1.37-4.46,4.6,4.6,0,0,1,2.53-1.86,3.26,3.26,0,0,1,.86-.12c.19,0,.29,0,.29.05s-.41,0-1.09.26a4.62,4.62,0,0,0-2.28,1.88c-1.37,2.14-1.74,6-.3,9.7a12.41,12.41,0,0,0,3.1,4.52,13.21,13.21,0,0,0,3.79,2.44A19.89,19.89,0,0,0,205.14,239.42Z"/><path class="cls-5" d="M228.45,240.28a80.23,80.23,0,0,1-.24-9.21,80,80,0,0,1,.28-9.22,83.32,83.32,0,0,1,.24,9.22A82.49,82.49,0,0,1,228.45,240.28Z"/><path class="cls-12" d="M191.76,219.58c.11-2.23.35-4.76.35-4.76a6.67,6.67,0,0,0,5.85-6.3c.33-5.71,0-18.85,0-18.85l-10.05-5.12-11.06,8.73,1.68,28.5,10.17.64A2.92,2.92,0,0,0,191.76,219.58Z"/><path class="cls-13" d="M192.76,204s0,.1-.09.24a.79.79,0,0,1-.64.28c-.64,0-1.25-.74-1.48-1.6a2.88,2.88,0,0,1,0-1.27,1.09,1.09,0,0,1,.6-.86.58.58,0,0,1,.43,0,.48.48,0,0,1,.22.23c.08.17,0,.27,0,.27s0-.1-.1-.21a.38.38,0,0,0-.48-.1.91.91,0,0,0-.41.72,2.57,2.57,0,0,0,.05,1.13c.2.77.73,1.41,1.21,1.46a.76.76,0,0,0,.54-.14C192.7,204.08,192.74,204,192.76,204Z"/><path class="cls-5" d="M201.39,186.59c-.77-2.62-3.56-3.93-6.1-4.65-3.87-1.09-8.06-1.58-11.84-.19s-8.32,3.84-8.32,8c-2.23-.19-3.5,1.77-4.39,4.19a16.37,16.37,0,0,0-1,4.6l0,0c-.29,5.47-1.81,13-5.35,17-2,2.23-4.78,3.77-5.92,6.55-1,2.41-.47,5.26-1.41,7.7-.83,2.15-2.66,3.68-4,5.55a14.83,14.83,0,0,0-1,14.39A18.21,18.21,0,0,0,163,259.18a25.51,25.51,0,0,0,14.36.14,24,24,0,0,0,9.62-4.77,16.11,16.11,0,0,0,5.52-9.32c.7-4.09-.44-8.23-1.28-12.29-2.66-12.84-1.9-13.5,1.46-25.41.07-.21.12-.43.18-.64s.08-.31.13-.48h0a7.44,7.44,0,0,0,.16-1.42,2.73,2.73,0,0,1-2.89-.63,3,3,0,0,1-.69-3,4.33,4.33,0,0,1,2.58-2.43c1.11-.47,2.3-.7,3.39-1.22,2.31-1.09,3.91-3.38,5-5.76A7.93,7.93,0,0,0,201.39,186.59Z"/><path class="cls-6" d="M193.15,204.25a4.27,4.27,0,0,1,.53,1c.29.63.69,1.52,1.14,2.54l.08.2-.21,0-1,.08c-.7,0-1.28.13-2,.13a.39.39,0,0,1-.26-.23.68.68,0,0,1,0-.28c0-.16.06-.27.09-.41l.18-.7a6.75,6.75,0,0,1,.42-1.39,7,7,0,0,1-.2,1.43l-.14.72c0,.24-.14.6,0,.57.5,0,1.21-.1,1.86-.15l1-.08-.13.21c-.42-1-.79-1.93-1-2.59A5.26,5.26,0,0,1,193.15,204.25Z"/><path class="cls-5" d="M158.92,288.45l44.34-1.35,19.28,75.33L219,448.85H195.52l2.91-84.58-17.15-52.44,2.64,140.37-23.69.35-2.5-131.94c-.1-3.67-1.31-11.95-.86-15.58Z"/><path class="cls-7" d="M187.19,312.89a8.37,8.37,0,0,1-2.18-.13c-1.33-.15-3.17-.43-5.18-.84s-3.81-.85-5.1-1.22a8.17,8.17,0,0,1-2.06-.73c0-.14,3.26.64,7.26,1.44S187.2,312.75,187.19,312.89Z"/><path class="cls-7" d="M218.78,444.11c0,.15-5.31.27-11.87.27s-11.86-.12-11.86-.27,5.31-.26,11.86-.26S218.78,444,218.78,444.11Z"/><path class="cls-7" d="M183.71,448.56c0,.14-5.15.26-11.51.26s-11.51-.12-11.51-.26,5.15-.26,11.51-.26S183.71,448.41,183.71,448.56Z"/><path class="cls-7" d="M180.66,448.2c-.15,0-.77-30.67-1.39-68.5s-1-68.52-.87-68.52.76,30.66,1.39,68.51S180.8,448.2,180.66,448.2Z"/><path class="cls-7" d="M215.63,444.11a1.5,1.5,0,0,1,0-.4l0-1.2c0-1.08.07-2.63.13-4.61.14-4,.34-9.8.59-16.93.55-14.31,1.3-34.05,2.14-55.85,0-.2,0-.4,0-.58v.07c-5.26-21-10-40.06-13.45-53.85-1.69-6.87-3.06-12.44-4-16.32-.46-1.9-.82-3.39-1.07-4.44-.11-.49-.2-.87-.26-1.15a2.61,2.61,0,0,1-.08-.4,2.81,2.81,0,0,1,.13.38c.07.29.18.67.31,1.15.27,1,.66,2.52,1.16,4.41,1,3.87,2.42,9.42,4.17,16.28,3.49,13.78,8.29,32.78,13.6,53.81v.08c0,.18,0,.38,0,.58-.9,21.8-1.71,41.53-2.29,55.85-.32,7.12-.58,12.9-.76,16.92-.1,2-.17,3.52-.23,4.6,0,.51-.05.9-.07,1.2A2.19,2.19,0,0,1,215.63,444.11Z"/><path class="cls-7" d="M208,362.78a28.2,28.2,0,0,1-5.19,1.15c-2.15.37-4,.63-4.83.67v-.2c.27.07.42.13.41.17s-.16,0-.44,0l-.61,0,.61-.18c.78-.23,2.62-.61,4.77-1A26.09,26.09,0,0,1,208,362.78Z"/><path class="cls-7" d="M207.53,365.65a25.81,25.81,0,0,1-4.67-.21,27.34,27.34,0,0,1-4.64-.51,17.12,17.12,0,0,1,4.68,0A17.67,17.67,0,0,1,207.53,365.65Z"/><path class="cls-14" d="M158.72,290a6.08,6.08,0,0,0,4.38,2.33,19.8,19.8,0,0,0,5.38-.1c11.44-1.27,23.57-2.44,34.78-5.17-14.51.81-29.83.53-44.34,1.35l-.15,1.24"/><g class="cls-11"><polygon points="173.68 310.49 181.85 342.22 181.28 311.83 173.68 310.49"/></g></svg>